<svg id="Capa_1" data-name="Capa 1" xmlns="http://www.w3.org/2000/svg" viewBox="0 0 1323.27 1270.39"><defs><style>.cls-1,.cls-3,.cls-8,.cls-9{fill:#fff;}.cls-1,.cls-10,.cls-2,.cls-4{stroke:#000;}.cls-1,.cls-2,.cls-4{stroke-miterlimit:10;}.cls-10,.cls-2{fill:none;}.cls-5{font-size:60px;}.cls-14,.cls-18,.cls-5{font-family:AncizarSans-Bold, Ancizar Sans;font-weight:700;}.cls-6,.cls-7,.cls-8,.cls-9{font-size:53px;}.cls-11,.cls-15,.cls-19,.cls-20,.cls-21,.cls-6,.cls-7,.cls-8,.cls-9{font-family:AncizarSans-Regular, Ancizar Sans;}.cls-15,.cls-19,.cls-20,.cls-21,.cls-6,.cls-7,.cls-8,.cls-9{font-weight:400;}.cls-7{letter-spacing:-0.03em;}.cls-8{letter-spacing:0em;}.cls-10{stroke-linecap:round;stroke-linejoin:round;}.cls-11{font-size:28.1px;}.cls-12{letter-spacing:-0.01em;}.cls-13{fill:#1f140f;}.cls-14{font-size:30.5px;}.cls-15{font-size:28.76px;}.cls-16{letter-spacing:-0.01em;}.cls-17{letter-spacing:0em;}.cls-18{font-size:44px;}.cls-20{letter-spacing:-0.03em;}.cls-21{letter-spacing:0em;}</style></defs><title>DiseñoCaja</title><rect class="cls-1" x="241.4" y="192.44" width="396.85" height="240.94"/><rect class="cls-1" x="354.52" y="135.5" width="170.08" height="56.69"/><polyline class="cls-1" points="198.52 207.72 198.52 192.5 206.77 192.5"/><polyline class="cls-1" points="219.78 192.5 241.04 192.5 241.04 433.44 198.52 433.44 198.52 207.72"/><line class="cls-1" x1="206.77" y1="192.5" x2="219.78" y2="192.5"/><rect class="cls-1" x="638.52" y="192.5" width="42.52" height="240.94"/><line class="cls-2" x1="241.52" y1="192.5" x2="198.52" y2="229.5"/><line class="cls-2" x1="241.52" y1="433.5" x2="198.52" y2="396.5"/><line class="cls-2" x1="638.52" y1="192.5" x2="681.52" y2="229.5"/><line class="cls-2" x1="638.52" y1="433.5" x2="681.52" y2="396.5"/><rect class="cls-1" x="241.41" y="433.41" width="396.85" height="240.94"/><rect class="cls-1" x="241.43" y="674.34" width="396.85" height="240.94"/><rect class="cls-1" x="241.43" y="915.28" width="396.85" height="240.94"/><polyline class="cls-1" points="198.52 448.72 198.52 433.5 206.77 433.5"/><polyline class="cls-1" points="219.78 433.5 241.04 433.5 241.04 674.45 198.52 674.45 198.52 448.72"/><line class="cls-1" x1="206.77" y1="433.5" x2="219.78" y2="433.5"/><line class="cls-2" x1="241.52" y1="433.5" x2="198.52" y2="470.5"/><line class="cls-2" x1="241.52" y1="674.5" x2="198.52" y2="637.5"/><polyline class="cls-1" points="198.52 930.72 198.52 915.5 206.77 915.5"/><polyline class="cls-1" points="219.78 915.5 241.04 915.5 241.04 1156.44 198.52 1156.44 198.52 930.72"/><line class="cls-1" x1="206.77" y1="915.5" x2="219.78" y2="915.5"/><line class="cls-2" x1="241.52" y1="915.5" x2="198.52" y2="952.5"/><line class="cls-2" x1="241.52" y1="1156.5" x2="198.52" y2="1119.5"/><rect class="cls-1" x="638.52" y="433.5" width="42.52" height="240.94"/><line class="cls-2" x1="638.52" y1="433.5" x2="681.52" y2="470.5"/><line class="cls-2" x1="638.52" y1="674.5" x2="681.52" y2="637.5"/><rect class="cls-1" x="638.52" y="915.5" width="42.52" height="240.94"/><line class="cls-2" x1="638.52" y1="915.5" x2="681.52" y2="952.5"/><line class="cls-2" x1="638.52" y1="1156.5" x2="681.52" y2="1119.5"/><rect class="cls-1" x="397.52" y="1156.5" width="85.04" height="113.39"/><rect class="cls-1" x="638.35" y="674.31" width="240.94" height="240.94"/><rect class="cls-1" x="0.5" y="674.33" width="240.94" height="240.94"/><rect class="cls-1" x="736.52" y="184.5" width="184.25" height="382.68"/><rect class="cls-1" x="736.52" y="128.5" width="184.25" height="56.69"/><rect class="cls-1" x="736.52" y="567.5" width="184.25" height="56.69"/><rect class="cls-1" x="920.52" y="184.5" width="218.27" height="382.68"/><line class="cls-2" x1="736.52" y1="185.5" x2="778.52" y2="128.5"/><line class="cls-2" x1="920.52" y1="185.5" x2="878.52" y2="128.5"/><line class="cls-2" x1="736.52" y1="567.5" x2="778.52" y2="624.5"/><line class="cls-2" x1="920.52" y1="567.5" x2="878.52" y2="624.5"/><rect class="cls-1" x="1138.52" y="183.5" width="184.25" height="382.68"/><rect class="cls-1" x="1138.52" y="127.5" width="184.25" height="56.69"/><rect class="cls-1" x="1138.52" y="566.5" width="184.25" height="56.69"/><line class="cls-2" x1="1138.52" y1="184.5" x2="1180.52" y2="127.5"/><line class="cls-2" x1="1322.52" y1="184.5" x2="1280.52" y2="127.5"/><line class="cls-2" x1="1138.52" y1="566.5" x2="1180.52" y2="623.5"/><line class="cls-2" x1="1322.52" y1="566.5" x2="1280.52" y2="623.5"/><rect class="cls-2" x="920.52" y="0.5" width="218.27" height="184.25"/><circle class="cls-3" cx="341.42" cy="1056.94" r="2.03"/><path d="M382.48,1154.51A13.81,13.81,0,0,0,379,1165c-13.44,29.61-40.33,23.33-49.68-5.26-1.13,8.44-.69,15.81,2.23,21.5-4.08-1.11-7.85-5.35-11.47-11.15.33,9.26,2.58,16.19,6.69,20.88-3.65-.37-6.8-2.34-9.56-5.59,7.65,52.71,99.83,51.44,79.31-17.2a14.85,14.85,0,0,1,10.51-6c-.63-2.44-2.9-5-6.37-7.64,10-1.6,4.3-13.22-2.55-8.92-1.11-6.37-9.71-6.85-10.83,0C381.52,1140.33,374.35,1148.29,382.48,1154.51Z" transform="translate(-31.98 -110)"/><circle class="cls-3" cx="362.12" cy="1049.02" r="1.97"/><ellipse cx="331.33" cy="1112.21" rx="6.14" ry="4.94"/><ellipse cx="331.33" cy="1117.14" rx="1.3" ry="6.7"/><rect class="cls-4" x="502.52" y="915.5" width="136" height="241"/><ellipse cx="331.48" cy="1122.79" rx="5.99" ry="1.06"/><path class="cls-3" d="M371.11,1206.59a6.9,6.9,0,0,1-4.86-1.91,13.81,13.81,0,0,1-2.23-2.78,14.21,14.21,0,0,1-2.24,2.78,7.09,7.09,0,1,1-5.25-11.85,7.78,7.78,0,0,1,5.52,2.17,13.94,13.94,0,0,1,2,2.36,13.43,13.43,0,0,1,2-2.36,7.78,7.78,0,0,1,5.52-2.17,6.88,6.88,0,1,1,0,13.75Zm-5.67-7a15.33,15.33,0,0,0,2.45,3.27,4.56,4.56,0,0,0,3.55,1.27h.06a4.46,4.46,0,1,0,0-8.9,5.34,5.34,0,0,0-3.86,1.52A14,14,0,0,0,365.44,1199.62Zm-8.91-4.36a4.46,4.46,0,1,0,0,8.9h.07a4.55,4.55,0,0,0,3.54-1.27,15.33,15.33,0,0,0,2.45-3.27,14,14,0,0,0-2.2-2.84A5.34,5.34,0,0,0,356.53,1195.26Z" transform="translate(-31.98 -110)"/><path class="cls-3" d="M371.82,1198.83v-1.32h-1.37v1.32h-1.32v1.36h1.32v1.32h1.37v-1.32h1.32v-1.36Z" transform="translate(-31.98 -110)"/><path class="cls-3" d="M354.56,1198.81h4.33v1.4h-4.33Z" transform="translate(-31.98 -110)"/><text class="cls-5" transform="translate(288.22 987.11)">R<tspan class="cls-6" x="33.36" y="0">OO</tspan><tspan class="cls-7" x="103.74" y="0">S</tspan><tspan class="cls-6" x="127.54" y="0">TER</tspan><tspan class="cls-8" x="209" y="0"> </tspan><tspan class="cls-3" x="220.39" y="0">O</tspan><tspan class="cls-9" x="260.89" y="0">ne</tspan></text><polygon class="cls-1" points="546.63 1027.66 552.53 1039.62 565.73 1041.54 556.18 1050.85 558.43 1064 546.63 1057.79 534.82 1064 537.07 1050.85 527.52 1041.54 540.72 1039.62 546.63 1027.66"/><polygon class="cls-1" points="603.63 1068.66 609.53 1080.62 622.73 1082.54 613.18 1091.85 615.43 1105 603.63 1098.79 591.82 1105 594.07 1091.85 584.52 1082.54 597.72 1080.62 603.63 1068.66"/><polygon class="cls-4" points="460.63 1026.66 466.53 1038.62 479.73 1040.54 470.18 1049.85 472.43 1063 460.63 1056.79 448.82 1063 451.07 1049.85 441.52 1040.54 454.72 1038.62 460.63 1026.66"/><polygon class="cls-4" points="406.63 1086.66 412.53 1098.62 425.73 1100.54 416.18 1109.85 418.43 1123 406.63 1116.79 394.82 1123 397.07 1109.85 387.52 1100.54 400.72 1098.62 406.63 1086.66"/><polygon class="cls-4" points="480.14 1105 484.04 1112.9 492.76 1114.17 486.45 1120.32 487.94 1129 480.14 1124.9 472.34 1129 473.83 1120.32 467.52 1114.17 476.24 1112.9 480.14 1105"/><polygon class="cls-1" points="546.14 1100 550.04 1107.9 558.76 1109.17 552.45 1115.32 553.94 1124 546.14 1119.9 538.34 1124 539.83 1115.32 533.52 1109.17 542.24 1107.9 546.14 1100"/><path class="cls-10" d="M187,876.3c1.07-.72,2.33-.24,3.49-.56a14.74,14.74,0,0,0,11.15-14.52,3.51,3.51,0,0,1,2-3.48A19.6,19.6,0,0,0,213.13,846a20.65,20.65,0,0,0-6-21.83c-1.83-1.54-3.87-2.83-5.79-4.22,1-6.34-3.37-14.16-10.62-15.92-8.06-2-15.53,2-18.1,10.47a16.59,16.59,0,0,0-.5,4.62c.07,13.92,0,27.84.06,41.75,0,7.47,4,12.76,11.4,15,1,.32,2.28-.16,3.27.62" transform="translate(-31.98 -110)"/><path class="cls-10" d="M181.89,928.58c-.13-.69-.23-1.38-.37-2.07a2.83,2.83,0,0,1,.17-2.2c.48-.86.13-1.94,0-2.87a38.8,38.8,0,0,0-2.22-9,37.44,37.44,0,0,0-7.17-11.71,38.16,38.16,0,0,0-9.43-7.58,37.68,37.68,0,0,0-11.1-4.15,37,37,0,0,0-23,2.7,37.83,37.83,0,0,0-15.63,13.4,36.4,36.4,0,0,0-5.38,12.75,38.93,38.93,0,0,0-.77,6.83,36.45,36.45,0,0,0,2.64,15,34.85,34.85,0,0,0,6.17,10.09,43.67,43.67,0,0,0,4.46,4.46,3,3,0,0,0,2,.81" transform="translate(-31.98 -110)"/><path class="cls-10" d="M181.11,925.16a2.81,2.81,0,0,1-1.56-1.45,31.84,31.84,0,0,0-16-13.33,30.26,30.26,0,0,0-12.22-2.1A32.39,32.39,0,0,0,122,928.48a33.78,33.78,0,0,0-2.1,8,32.52,32.52,0,0,0-.13,7.57,31,31,0,0,0,2.26,8.91c.11.28.33.58.27.83-.3,1.26.46,2,1.26,2.7a1.39,1.39,0,0,1,.52,1.35" transform="translate(-31.98 -110)"/><polygon class="cls-2" points="83 870.28 74.1 874.67 72.67 884.49 65.75 877.39 55.97 879.07 60.58 870.28 55.97 861.5 65.75 863.18 72.67 856.07 74.1 865.89 83 870.28"/><polygon class="cls-2" points="168.48 859.42 157.44 864.87 155.67 877.05 147.08 868.23 134.95 870.31 140.68 859.42 134.95 848.53 147.08 850.61 155.67 841.79 157.44 853.97 168.48 859.42"/><polygon class="cls-2" points="120.67 729.68 110.23 734.83 108.56 746.35 100.43 738.01 88.95 739.98 94.37 729.68 88.95 719.37 100.43 721.34 108.56 713 110.23 724.52 120.67 729.68"/><path class="cls-2" d="M88.72,909.36,79,914.46a.82.82,0,0,0-.43.63L77.21,926,69,918l-11.22,2.2L62.9,910l-5.56-10,11.31,1.67,7.79-8.38,1.91,11.28Z" transform="translate(-31.98 -110)"/><polygon class="cls-2" points="69.95 707.23 59.75 712.27 58.11 723.53 50.17 715.38 38.95 717.3 44.25 707.23 38.95 697.16 50.17 699.08 58.11 690.93 59.75 702.2 69.95 707.23"/><path class="cls-10" d="M759.44,883.3c-1.07-.72-2.33-.24-3.49-.56a14.74,14.74,0,0,1-11.15-14.52,3.5,3.5,0,0,0-2-3.48,19.55,19.55,0,0,1-9.5-11.78,20.63,20.63,0,0,1,6-21.83c1.83-1.54,3.87-2.83,5.79-4.22-1-6.34,3.37-14.16,10.62-15.92,8.06-2,15.53,2,18.1,10.47a16.22,16.22,0,0,1,.5,4.62c-.06,13.92,0,27.84-.06,41.75,0,7.47-4,12.76-11.39,15-1,.32-2.29-.16-3.28.62" transform="translate(-31.98 -110)"/><path class="cls-10" d="M746.56,935.58c.12-.69.22-1.38.36-2.07a2.83,2.83,0,0,0-.17-2.2c-.48-.86-.13-1.94,0-2.87a38.8,38.8,0,0,1,2.22-9,37.44,37.44,0,0,1,7.17-11.71A37.66,37.66,0,0,1,776.67,896a37,37,0,0,1,23,2.7,37.83,37.83,0,0,1,15.63,13.4,36.4,36.4,0,0,1,5.38,12.75,38,38,0,0,1,.77,6.83,36.45,36.45,0,0,1-2.64,15,34.85,34.85,0,0,1-6.17,10.09,42.68,42.68,0,0,1-4.46,4.46,3,3,0,0,1-2,.81" transform="translate(-31.98 -110)"/><path class="cls-10" d="M747.33,932.16a2.81,2.81,0,0,0,1.56-1.45,31.84,31.84,0,0,1,16-13.33,30.29,30.29,0,0,1,12.22-2.1,32.09,32.09,0,0,1,17.83,5.79,31.72,31.72,0,0,1,11.52,14.41,33.31,33.31,0,0,1,2.1,8,32.52,32.52,0,0,1,.13,7.57,31,31,0,0,1-2.26,8.91c-.11.28-.33.58-.27.83.3,1.26-.46,2-1.26,2.7a1.39,1.39,0,0,0-.52,1.35" transform="translate(-31.98 -110)"/><polygon class="cls-2" points="795.48 877.28 804.38 881.67 805.8 891.49 812.73 884.39 822.51 886.07 817.89 877.28 822.51 868.5 812.73 870.18 805.8 863.07 804.38 872.89 795.48 877.28"/><polygon class="cls-2" points="717 866.42 728.03 871.87 729.8 884.05 738.39 875.23 750.52 877.31 744.8 866.42 750.52 855.53 738.39 857.61 729.8 848.79 728.03 860.97 717 866.42"/><path class="cls-2" d="M853.72,916.36l9.75,5.1a.82.82,0,0,1,.43.63L865.23,933l8.17-8,11.23,2.2L879.54,917l5.56-10-11.31,1.67L866,900.26l-1.91,11.28Z" transform="translate(-31.98 -110)"/><polygon class="cls-2" points="808.52 714.23 818.73 719.27 820.36 730.53 828.31 722.38 839.52 724.3 834.23 714.23 839.52 704.16 828.31 706.08 820.36 697.93 818.73 709.2 808.52 714.23"/><polygon class="cls-2" points="759.8 735.75 770.24 730.6 771.92 719.07 780.05 727.41 791.52 725.44 786.11 735.75 791.52 746.06 780.05 744.09 771.92 752.43 770.24 740.9 759.8 735.75"/><text class="cls-11" transform="translate(360.97 1015.58)"><tspan class="cls-12">R</tspan><tspan x="14.84" y="0">eloj alarma</tspan></text><rect class="cls-2" x="920.52" y="567.5" width="218.27" height="184.25"/><path class="cls-13" d="M364.22,899.25v10.34h-1.76V899.25l-3.76.06.19-1.42H368l-.19,1.42Z" transform="translate(-31.98 -110)"/><path class="cls-13" d="M371.92,909.82c-2.23,0-4-1.32-4-4.32s1.66-4.74,4-4.74A3,3,0,0,1,375,904c0,.38,0,.9,0,1.11h-5.47v.13c0,2.47,1.4,3.25,2.8,3.25a6.24,6.24,0,0,0,2.46-.48l.29,1.1A8,8,0,0,1,371.92,909.82Zm-2.37-5.73h3.88c0-1.49-.63-2.22-1.87-2.22S369.74,902.41,369.55,904.09Z" transform="translate(-31.98 -110)"/><path class="cls-13" d="M383.18,909.21a7.09,7.09,0,0,1-2.77.61c-2.39,0-3.92-1.6-3.92-4.32,0-2.92,1.81-4.74,4.19-4.74a5.58,5.58,0,0,1,2.33.38l-.29,1.28a7.19,7.19,0,0,0-2.1-.44c-1.44,0-2.45,1-2.45,3.23s1.17,3.31,2.66,3.31a6.45,6.45,0,0,0,2.12-.4Z" transform="translate(-31.98 -110)"/><path class="cls-13" d="M386.62,902.67v6.92H385V901l1.19-.27.36.92a6.82,6.82,0,0,1,2.79-.92A2.42,2.42,0,0,1,392,903.3v6.29h-1.64v-5.67a1.6,1.6,0,0,0-1.67-1.82A5.29,5.29,0,0,0,386.62,902.67Z" transform="translate(-31.98 -110)"/><path class="cls-13" d="M397.66,909.84c-2.23,0-3.78-1.6-3.78-4.38,0-3,1.76-4.7,4.43-4.7,2.3,0,3.73,1.59,3.73,4.36C402,908.08,400.28,909.82,397.66,909.84Zm.1-7.84c-1.44,0-2.22,1-2.22,3.06,0,2.58,1.07,3.52,2.62,3.52s2.22-1,2.22-3.06C400.38,902.94,399.31,902,397.76,902Z" transform="translate(-31.98 -110)"/><path class="cls-13" d="M407.32,909.52a4.78,4.78,0,0,1-1.55.3,1.52,1.52,0,0,1-1.67-1.64V896.63l1.63-.27v11.51a.58.58,0,0,0,.65.61,2.33,2.33,0,0,0,.76-.13Z" transform="translate(-31.98 -110)"/><path class="cls-13" d="M412.26,909.84c-2.23,0-3.78-1.6-3.78-4.38,0-3,1.76-4.7,4.43-4.7,2.3,0,3.73,1.59,3.73,4.36C416.64,908.08,414.88,909.82,412.26,909.84Zm.1-7.84c-1.44,0-2.22,1-2.22,3.06,0,2.58,1.07,3.52,2.62,3.52s2.22-1,2.22-3.06C415,902.94,413.91,902,412.36,902Z" transform="translate(-31.98 -110)"/><path class="cls-13" d="M420.88,913.57c-1.91,0-3.13-.76-3.13-2a2.47,2.47,0,0,1,1.31-1.89c.31-.21.67-.42,1-.61a1.3,1.3,0,0,1-1.05-1.21,2.36,2.36,0,0,1,1-1.51,2.49,2.49,0,0,1-1.93-2.52c0-1.89,1.45-3,3.58-3a3.18,3.18,0,0,1,1.75.48c.62-.12,2.47-.5,2.47-.48v1.43h-.36l-1.3-.15a2.49,2.49,0,0,1,.4,1.42c0,1.91-1.49,3-3.5,3H421a1.22,1.22,0,0,0-.5.8c0,.38.34.57,1.3.73l1.72.28c1.13.19,2,.6,2,1.9C425.47,912,423.35,913.57,420.88,913.57Zm3.06-2.92c0-.62-.42-1-1.59-1.17l-1.18-.21a9.48,9.48,0,0,0-.94.55,1.76,1.76,0,0,0-.94,1.38c0,.69.73,1.15,2.18,1.15S423.94,911.54,423.94,910.65Zm-2.81-8.82c-1,0-1.49.38-1.49,1.7a1.76,1.76,0,0,0,1.89,1.88c.9,0,1.51-.42,1.51-1.71A1.72,1.72,0,0,0,421.13,901.83Z" transform="translate(-31.98 -110)"/><path class="cls-13" d="M429.69,897.05l1.7.33-2.83,2.44h-1.34Zm-.55,12.54h-1.65V901l1.65-.27Z" transform="translate(-31.98 -110)"/><path class="cls-13" d="M436.19,908.83a5.42,5.42,0,0,1-2.47,1,2.29,2.29,0,0,1-2.48-2.29c0-1.61,1.41-2.77,4.87-2.83v-.78c0-1.21-.61-1.84-1.66-1.84a9,9,0,0,0-2.6.57l-.36-1.12a9.08,9.08,0,0,1,3.48-.77,2.48,2.48,0,0,1,2.73,2.77v6l-1.13.26Zm-.08-.88v-2a10.64,10.64,0,0,0-1.36-.07c-1.2,0-2,.47-2,1.35a1.35,1.35,0,0,0,1.43,1.38A4.76,4.76,0,0,0,436.11,908Z" transform="translate(-31.98 -110)"/><path class="cls-13" d="M448.8,897.89c3.4,0,5.64,2,5.64,5.43,0,4-2.73,6.35-6.5,6.35a21.19,21.19,0,0,1-3.17-.27V897.89Zm-2.27,10.29a15.18,15.18,0,0,0,2.08.15c2.05,0,4-1.24,4-4.7a4.09,4.09,0,0,0-4.39-4.46h-1.7Z" transform="translate(-31.98 -110)"/><path class="cls-13" d="M457.47,897c.35,0,1.19.54,1.19,1a1.61,1.61,0,0,1-1.07,1.13c-.36,0-1.19-.54-1.19-1A1.6,1.6,0,0,1,457.47,897Zm.84,3.75v8.83h-1.64V901Z" transform="translate(-31.98 -110)"/><path class="cls-13" d="M463.25,913.57c-1.91,0-3.14-.76-3.14-2a2.49,2.49,0,0,1,1.32-1.89c.31-.21.67-.42,1-.61a1.31,1.31,0,0,1-1.05-1.21,2.34,2.34,0,0,1,1-1.51,2.49,2.49,0,0,1-1.93-2.52c0-1.89,1.45-3,3.57-3a3.24,3.24,0,0,1,1.76.48c.61-.12,2.47-.5,2.47-.48v1.43h-.37l-1.3-.15a2.5,2.5,0,0,1,.41,1.42c0,1.91-1.5,3-3.5,3h-.12a1.22,1.22,0,0,0-.5.8c0,.38.35.57,1.3.73l1.72.28c1.13.19,1.95.6,1.95,1.9C467.83,912,465.71,913.57,463.25,913.57Zm3.06-2.92c0-.62-.43-1-1.59-1.17l-1.19-.21a9.38,9.38,0,0,0-.93.55,1.74,1.74,0,0,0-.94,1.38c0,.69.73,1.15,2.18,1.15S466.31,911.54,466.31,910.65Zm-2.82-8.82c-1,0-1.49.38-1.49,1.7a1.77,1.77,0,0,0,1.9,1.88c.9,0,1.51-.42,1.51-1.71A1.73,1.73,0,0,0,463.49,901.83Z" transform="translate(-31.98 -110)"/><path class="cls-13" d="M470.66,897c.34,0,1.18.54,1.18,1a1.59,1.59,0,0,1-1.07,1.13c-.36,0-1.18-.54-1.18-1A1.6,1.6,0,0,1,470.66,897Zm.84,3.75v8.83h-1.64V901Z" transform="translate(-31.98 -110)"/><path class="cls-13" d="M476.83,909.82a2.15,2.15,0,0,1-2.35-2.23l.06-5.43h-1.42v-1l1.44-.19,0-1.45,1.64-.27,0,1.72H479l-.19,1.17h-2.66l-.06,4.89c0,1,.52,1.4,1.29,1.4a5.74,5.74,0,0,0,1.58-.25l.16,1.11A6.31,6.31,0,0,1,476.83,909.82Z" transform="translate(-31.98 -110)"/><path class="cls-13" d="M485.09,908.83a5.42,5.42,0,0,1-2.47,1,2.29,2.29,0,0,1-2.48-2.29c0-1.61,1.41-2.77,4.87-2.83v-.78c0-1.21-.61-1.84-1.66-1.84a9,9,0,0,0-2.6.57l-.36-1.12a9.08,9.08,0,0,1,3.48-.77,2.48,2.48,0,0,1,2.73,2.77v6l-1.13.26ZM485,908v-2a10.64,10.64,0,0,0-1.36-.07c-1.2,0-2,.47-2,1.35a1.35,1.35,0,0,0,1.43,1.38A4.76,4.76,0,0,0,485,908Z" transform="translate(-31.98 -110)"/><path class="cls-13" d="M492.43,909.52a4.78,4.78,0,0,1-1.55.3,1.52,1.52,0,0,1-1.67-1.64V896.63l1.63-.27v11.51a.58.58,0,0,0,.65.61,2.33,2.33,0,0,0,.76-.13Z" transform="translate(-31.98 -110)"/><path class="cls-13" d="M399.75,932.52v-1.41c3.63-3.33,5.27-5.33,5.27-7.07a2,2,0,0,0-2.16-2.09,7.78,7.78,0,0,0-2.64.67l-.46-1.24a9.66,9.66,0,0,1,3.56-.79c2.16,0,3.58,1.25,3.58,3.2,0,2.22-2.24,4.53-5.42,7.36l5.74-.14-.29,1.51Z" transform="translate(-31.98 -110)"/><path class="cls-13" d="M413.16,932.75c-2.58,0-4-2.12-4-5.85,0-4,1.81-6.31,4.62-6.31,2.59,0,4,2.13,4,5.86C417.79,930.46,416,932.75,413.16,932.75Zm.08-10.82c-1.46,0-2.39,1.11-2.39,4.74s1.2,4.76,2.79,4.76,2.39-1.12,2.39-4.76S414.83,921.93,413.24,921.93Z" transform="translate(-31.98 -110)"/><path class="cls-13" d="M423.54,932.52V922.31L421,923.42l-.42-1.39c.93-.27,2.21-.75,3.47-1.21h1.19v11.7Z" transform="translate(-31.98 -110)"/><path class="cls-13" d="M429.54,929.91c0-1.5,1.14-2.45,2.52-3.31-1.34-.79-2.05-1.61-2.05-3,0-1.64,1.5-3,3.85-3,1.66,0,3.17.9,3.17,2.51,0,1.2-.88,2.16-2.27,3,2,1,2.73,1.83,2.73,3.15,0,1.78-1.68,3.44-4.32,3.44C431,932.75,429.54,931.63,429.54,929.91Zm6.36-.2c0-.8-.38-1.43-2.79-2.58-1.16.81-1.95,1.32-1.95,2.43s1.13,1.93,2.62,1.93C435,931.49,435.9,930.79,435.9,929.71Zm-2.19-4.05c1.07-.67,1.77-1.34,1.77-2.22s-.74-1.6-2.16-1.6a1.51,1.51,0,0,0-1.72,1.58C431.6,924.17,432.1,924.82,433.71,925.66Z" transform="translate(-31.98 -110)"/><path class="cls-13" d="M446.12,932.52h-1.75v-11.7h1.75Z" transform="translate(-31.98 -110)"/><path class="cls-13" d="M451.32,932.52h-1.76v-11.7h1.76Z" transform="translate(-31.98 -110)"/><path d="M550.88,938A27.07,27.07,0,1,1,578,911.12,27,27,0,0,1,550.88,938Zm-1.56-27.31c0-2.79,0-5.59,0-8.38,0-.47-.14-.62-.6-.59a16.64,16.64,0,0,1-1.73,0c-.47,0-.59.15-.58.6,0,2.86,0,5.71,0,8.57a6.32,6.32,0,0,1-.15,1.3,6,6,0,0,1-6,4.5,5.88,5.88,0,0,1-5.86-5.89v-8.47c0-.6,0-.6-.62-.61h-1.68c-.6,0-.6,0-.6.63,0,1.85,0,3.7,0,5.55a36.82,36.82,0,0,0,.09,4.33,8.53,8.53,0,0,0,2.17,4.82,8.19,8.19,0,0,0,6,2.5c3,.07,6,0,9,0,.46,0,.6-.14.59-.6C549.31,916.23,549.32,913.46,549.32,910.7Zm3.1-.05v1.64c0,2.25,0,4.5,0,6.75,0,.41.14.57.55.55s1.07,0,1.6,0c.75,0,.76,0,.76-.74,0-2.79,0-5.58,0-8.38a5.72,5.72,0,0,1,6.89-5.79,5.88,5.88,0,0,1,5.15,6.09c0,2.75,0,5.5,0,8.25,0,.42.13.6.57.58s1.16,0,1.73,0,.61,0,.61-.61v-7.88a14.35,14.35,0,0,0-.18-2.36,8.05,8.05,0,0,0-3.1-5.33,9,9,0,0,0-5.49-1.66c-2.8,0-5.59,0-8.39,0-.68,0-.68,0-.68.68C552.42,905.16,552.42,907.9,552.42,910.65Z" transform="translate(-31.98 -110)"/><path d="M564.78,942.8c-.07,1.25,0,2.39.05,3.52,0,.21,0,.42-.21.55a.52.52,0,0,1-.71-.16c-.61-.74-1.24-1.46-1.86-2.18a1.2,1.2,0,0,0-.46-.43c.29,1.06.58,2.08.86,3.1,0,.2.15.4-.14.54s-.49.16-.6-.26l-1-4c-.06-.23-.15-.46.17-.57s.53-.3.81,0c.69.83,1.41,1.63,2.12,2.45l.22.23c.14-.15.07-.31.07-.45,0-1,0-2,0-3,0-.48.3-.54.61-.65s.39.15.49.34l1.86,3.65c.09.17.28.37-.06.52s-.51.23-.7-.17C565.8,944.84,565.31,943.88,564.78,942.8Z" transform="translate(-31.98 -110)"/><path d="M587.17,906.09l-2.62.25-.45,0c-.28,0-.43-.07-.44-.37s.14-.37.38-.39l2.85-.28c.41,0,.82-.08,1.22-.1.19,0,.44-.16.53.17s.12.55-.17.77l-2.48,2-.55.46c.15.11.3.05.43,0l2.67-.26c.22,0,.43,0,.46.27s-.1.43-.4.46c-1.09.1-2.17.22-3.26.33-.27,0-.54.07-.81.08s-.41.11-.5-.17a.58.58,0,0,1,.15-.73c.86-.68,1.7-1.38,2.55-2.07l.48-.39Z" transform="translate(-31.98 -110)"/><path d="M516.25,912.21l-2.94.2c-.26,0-.53.08-.54-.34s.25-.4.51-.42c1.34-.1,2.69-.19,4-.27.17,0,.39-.07.46.18a.6.6,0,0,1-.16.7l-1.44,1.11-1.87,1.43,3.14-.21c.25,0,.53-.1.56.31s-.21.42-.51.44l-4,.26c-.17,0-.42.15-.5-.13s-.16-.59.17-.82c.72-.53,1.42-1.08,2.14-1.63l.93-.71Z" transform="translate(-31.98 -110)"/><path d="M567.07,880.47c.51-1,1-2,1.4-2.86.11-.24.21-.42.54-.25s.23.36.12.59c-.59,1.21-1.18,2.43-1.78,3.64-.07.16-.08.45-.36.37s-.52-.15-.56-.51c-.14-1.1-.3-2.19-.45-3.29l-.11-.81-.56,1.12c-.29.6-.59,1.2-.86,1.81-.13.27-.28.35-.57.21s-.21-.34-.11-.56c.59-1.2,1.17-2.41,1.76-3.6.09-.18.09-.51.43-.42a.7.7,0,0,1,.61.59c.08.76.18,1.51.28,2.26C566.92,879.29,567,879.81,567.07,880.47Z" transform="translate(-31.98 -110)"/><path d="M553.47,872.91c.26,0,.67.05,1.07.11,2.1.3,2.52,2.19,1.72,3.71a2.59,2.59,0,0,1-2.61,1.3c-.3,0-.59-.11-.89-.14-.45,0-.57-.27-.52-.7.14-1.22.24-2.44.36-3.66C552.66,872.87,552.65,872.87,553.47,872.91Zm.49,4.45a1.44,1.44,0,0,0,1.21-.39,2.37,2.37,0,0,0,.44-2.34,1.81,1.81,0,0,0-1.72-1c-.31,0-.44.08-.47.39-.07.88-.17,1.75-.24,2.62-.07.7,0,.72.65.76Z" transform="translate(-31.98 -110)"/><path d="M539.08,874.89a2,2,0,0,1,1.7.88,2.63,2.63,0,0,1-1,4,6.16,6.16,0,0,1-1.38.44A.33.33,0,0,1,538,880c-.46-1.33-.94-2.66-1.41-4,0-.16-.12-.34.1-.42A7.93,7.93,0,0,1,539.08,874.89Zm1.46,2.88c-.12-1.44-1-2.67-2.79-1.92-.24.1-.3.21-.21.44l1,2.87c.05.13.08.25.27.25A1.77,1.77,0,0,0,540.54,877.77Z" transform="translate(-31.98 -110)"/><path d="M571,940.1c-.22.47.06.49.48.51a1.21,1.21,0,0,1,1,1.66,2,2,0,0,1-.74,1c-.39.28-.81.53-1.21.8-.2.14-.32.09-.45-.1-.78-1.24-1.58-2.48-2.37-3.72-.08-.13-.13-.26,0-.35a6.17,6.17,0,0,1,1.87-1A1.18,1.18,0,0,1,571,940.1Zm.8,2a.81.81,0,0,0-.75-.77,1.66,1.66,0,0,0-1,.38c-.22.13-.23.28-.09.48s.32.51.49.76.12.22.26.22A1.66,1.66,0,0,0,571.8,942.06Zm-2.26-2.49a1.23,1.23,0,0,0-.86.44c-.13.21.17.39.26.59a4.05,4.05,0,0,1,.21.35c.18.39.41.37.7.12.09-.08.19-.14.28-.23a.61.61,0,0,0,.15-.74A.83.83,0,0,0,569.54,939.57Z" transform="translate(-31.98 -110)"/><path d="M523.67,936.83a3,3,0,0,1-2.23-1.15c-.82-.95-.82-.95.1-1.77s1.72-1.49,2.57-2.25c.24-.21.4-.2.6.05s.59.69.88,1c1.51,1.79.22,3.5-1.34,4C524,936.78,523.81,936.8,523.67,936.83Zm1.76-2.65a2.33,2.33,0,0,0-.71-1.48c-.17-.21-.3-.19-.48,0l-2.3,2a.29.29,0,0,0-.09.42,1.72,1.72,0,0,0,1.82,1A2.21,2.21,0,0,0,525.43,934.18Z" transform="translate(-31.98 -110)"/><path d="M558.47,946.53A2.43,2.43,0,0,1,555.4,949a2.3,2.3,0,0,1-1.59-2,2.47,2.47,0,0,1,2.63-3.12,1.93,1.93,0,0,1,1.7,1.18A2.74,2.74,0,0,1,558.47,946.53ZM556,944.58a1.27,1.27,0,0,0-1.32.9,2.78,2.78,0,0,0,.41,2.39,1.29,1.29,0,0,0,1.4.53,1.45,1.45,0,0,0,1.19-1.68c-.09-1.28-.65-2.08-1.5-2.14Z" transform="translate(-31.98 -110)"/><path d="M587.2,899.36a4.85,4.85,0,0,1-.08.53,3,3,0,0,1-3.33,1.76,2.47,2.47,0,0,1-1.86-2.67,1.65,1.65,0,0,1,.1-.44,3,3,0,0,1,2.83-1.64,2.41,2.41,0,0,1,2.27,1.91A4.58,4.58,0,0,1,587.2,899.36Zm-3.13,1.58a3.19,3.19,0,0,0,1.91-.76,1.41,1.41,0,0,0,.4-1.54,1.29,1.29,0,0,0-1.1-.95,2.91,2.91,0,0,0-2.46,1.1,1.48,1.48,0,0,0,.06,1.52A1.32,1.32,0,0,0,584.07,900.94Z" transform="translate(-31.98 -110)"/><path d="M545.83,945.82a2.84,2.84,0,0,1-1.52,2.64,2.25,2.25,0,0,1-3.29-2.12,3.19,3.19,0,0,1,.58-1.84,2.31,2.31,0,0,1,2.45-.94,2,2,0,0,1,1.7,1.56A4.29,4.29,0,0,1,545.83,945.82Zm-.89,0v-.28a1.44,1.44,0,0,0-1.24-1.41,1.33,1.33,0,0,0-1.5.83,3.08,3.08,0,0,0-.3,1.69,1.4,1.4,0,0,0,1.27,1.33,1.32,1.32,0,0,0,1.49-.84A3,3,0,0,0,544.94,945.85Z" transform="translate(-31.98 -110)"/><path d="M525.92,889l-1.72-.37a.5.5,0,0,0-.57.15c-.22.24-.25.41,0,.61s.65.55,1,.81.13.37,0,.55-.27.32-.52.11q-1.68-1.39-3.37-2.78c-.18-.15-.21-.27-.06-.45.32-.37.61-.77.94-1.11a1.33,1.33,0,0,1,1.52-.46,1.41,1.41,0,0,1,.94,1.38.41.41,0,0,0,.42.47c.51.07,1,.16,1.52.27.18,0,.53,0,.46.25A.69.69,0,0,1,525.92,889Zm-3.34-2.15a1.23,1.23,0,0,0-.94.69c0,.2.11.28.23.35.36.23.59.69,1,.72.24,0,.62-.79.56-1.06A1,1,0,0,0,522.58,886.89Z" transform="translate(-31.98 -110)"/><path d="M517.7,919.38c.94,0,1.62.72,1.83,1.88a1.56,1.56,0,0,1-1.11,1.85c-1,.34-2,.62-3,.95-.29.09-.39,0-.46-.28s-.13-.43.2-.53l2.22-.69a6.18,6.18,0,0,0,.72-.26,1,1,0,0,0,.54-1.48.94.94,0,0,0-1.29-.59c-.92.27-1.83.55-2.74.84-.3.1-.47.07-.58-.27s.08-.42.33-.49l2.61-.81A2.18,2.18,0,0,1,517.7,919.38Z" transform="translate(-31.98 -110)"/><path d="M588.77,915.36c0,.36-.13.61-.61.71-1.38.28-2.75.62-4.12.92-.17,0-.45.22-.5,0s-.09-.65.33-.75.59-.14.89-.19.47-.16.46-.5a2.66,2.66,0,0,1,.1-.8.57.57,0,0,0-.43-.79,6.29,6.29,0,0,1-.7-.32.39.39,0,0,1-.25-.39c0-.46.13-.54.54-.33l3.94,2C588.61,914.93,588.83,915,588.77,915.36Zm-1.12,0,0-.09-.93-.46c-.76-.37-.82-.33-.84.53v0c0,.26.06.36.34.29C586.7,915.55,587.18,915.46,587.65,915.35Z" transform="translate(-31.98 -110)"/><path d="M548.49,877.93a.32.32,0,0,1-.35-.17c0-.1-.1-.22-.16-.32-.19-.3-.22-.83-.57-.88a5.36,5.36,0,0,0-1.48.15c-.16,0-.19.18-.22.32-.06.31-.12.62-.19.93a.4.4,0,0,1-.3.36c-.47.12-.58,0-.48-.45.32-1.4.66-2.81,1-4.22.08-.39.31-.49.65-.55s.48.17.61.43l1.89,3.78C549.1,877.82,549,877.91,548.49,877.93Zm-2.09-3.72-.11,0c-.1.48-.21,1-.3,1.46,0,.17,0,.34.2.29s.69,0,.95-.24c0,0,0-.06,0-.09Z" transform="translate(-31.98 -110)"/><path d="M579.65,934.35a.26.26,0,0,0-.28.1l-.83,1a.36.36,0,0,0,0,.46c.18.28.34.57.51.86.08.13.15.27,0,.41s-.19.35-.4.35-.2-.21-.28-.33c-.72-1.27-1.43-2.53-2.16-3.79-.14-.25-.2-.44,0-.69s.41-.38.78-.24c1.35.54,2.71,1,4.07,1.57.14.06.45.06.34.31s-.25.57-.64.45-.59-.23-.89-.34Zm-2.47-1-.1.07.83,1.41c0,.06.14.11.2,0a2.64,2.64,0,0,0,.64-.81c0-.09-.1-.13-.18-.17Z" transform="translate(-31.98 -110)"/><path d="M571.71,883.33a2.55,2.55,0,0,0-.33.17c-.28.17-.55.38-.84.53s-.53-.11-.67-.31.13-.26.25-.33l3.79-2.35a.5.5,0,0,1,.69.05c.23.19.37.35.25.69-.49,1.38-1,2.78-1.44,4.17,0,.14,0,.5-.32.35s-.57-.25-.45-.64.22-.66.35-1a.37.37,0,0,0-.14-.51c-.29-.2-.55-.43-.82-.64A3.45,3.45,0,0,0,571.71,883.33Zm2.21-1.33-.09-.08a6,6,0,0,0-1.33.9c-.27.3.28.4.45.6s.3.39.45.06C573.61,883,573.75,882.5,573.92,882Z" transform="translate(-31.98 -110)"/><path d="M531.22,938.08a.74.74,0,0,1-.3.33c-.12.09-.23,0-.32-.06-.36-.29-.72-.57-1.06-.87s-.33-.17-.51,0c-.7.84-.71.83.14,1.51a3.92,3.92,0,0,1,.32.25c.13.12.33.21.14.44s-.34.27-.57.06-.53-.41-.77-.64-.38-.21-.59,0c-.78.93-.79.92.15,1.65.18.14.37.27.54.42s.34.21.15.43-.32.34-.58.13l-1.85-1.47c-.18-.15-.17-.29,0-.46l2.73-3.41c.14-.18.27-.21.45-.06l1.81,1.45C531.14,937.91,531.22,938,531.22,938.08Z" transform="translate(-31.98 -110)"/><path d="M520.75,895.45c.2,0,.23-.14.29-.25l.68-1.34c.08-.15.16-.32.38-.17s.4.21.26.49l-1.17,2.16c-.1.2-.24.18-.41.09l-3.85-2c-.2-.11-.26-.23-.15-.44.36-.67.72-1.34,1.07-2,.09-.16.18-.29.39-.16s.35.22.22.47c-.23.41-.44.83-.68,1.24-.13.21-.11.33.12.47,1,.59.94.6,1.47-.39.08-.14.17-.29.24-.44s.2-.27.39-.13.3.22.18.44-.37.7-.57,1-.09.35.14.46Z" transform="translate(-31.98 -110)"/><path d="M518.13,901.21c-1-.76-2-1.48-3-2.18a.53.53,0,0,1-.23-.72c.1-.27.21-.28.42-.12.45.35.92.69,1.38,1,.76.57,1.52,1.15,2.3,1.71a.49.49,0,0,1,.2.62c-.08.26-.15.47-.5.49-1.46.07-2.93.17-4.4.24-.17,0-.49.14-.48-.21s.06-.62.49-.64l3-.11A3.46,3.46,0,0,0,518.13,901.21Z" transform="translate(-31.98 -110)"/><path d="M530.58,884.16a1.92,1.92,0,0,1-.58,1.25,4.12,4.12,0,0,1-1,.72c-.28.15-.46.13-.61-.18s.06-.42.3-.51a2.25,2.25,0,0,0,.91-.58.65.65,0,0,0,.17-.82.73.73,0,0,0-.84-.39c-.4.07-.79.19-1.2.27a1.29,1.29,0,0,1-1.39-.54,1.31,1.31,0,0,1,0-1.54,3.17,3.17,0,0,1,1.31-1.09c.23-.13.36,0,.46.18s.11.4-.17.51a2.57,2.57,0,0,0-.79.44c-.26.22-.46.46-.29.82a.71.71,0,0,0,.84.39c.4-.08.79-.2,1.19-.27a1.37,1.37,0,0,1,1.66,1.16C530.57,884,530.57,884.1,530.58,884.16Z" transform="translate(-31.98 -110)"/><path d="M536,944.63a1.61,1.61,0,0,0,1.44,1.62,4.21,4.21,0,0,0,.49.09c.17,0,.3,0,.27.26s-.08.41-.34.4c-1.77-.1-3.32-1.3-2.56-3.36a2.6,2.6,0,0,1,2-1.89,3,3,0,0,1,2.35.78c.18.15.1.29,0,.43s-.23.3-.44.12a3.73,3.73,0,0,0-1-.58,1.31,1.31,0,0,0-1.53.35A3,3,0,0,0,536,944.63Z" transform="translate(-31.98 -110)"/><path d="M578.63,886.12A2.87,2.87,0,0,1,581.3,888c.07.26-.08.32-.25.4s-.33.11-.44-.13a6.75,6.75,0,0,0-.48-.82,1.3,1.3,0,0,0-1.72-.48,2.8,2.8,0,0,0-1.08.81,1.58,1.58,0,0,0,.08,2.32,5.08,5.08,0,0,0,.56.46c.13.1.31.17.15.38s-.23.3-.49.19a2.45,2.45,0,0,1-.87-4A2.83,2.83,0,0,1,578.63,886.12Z" transform="translate(-31.98 -110)"/><path d="M587.44,921.85c0,.44-.23.61-.67.46l-3.24-1c-.31-.11-.47-.07-.55.28s-.24.81-.37,1.21c0,.15-.1.32-.31.23s-.45-.12-.36-.42c.22-.74.47-1.47.71-2.2.06-.21.21-.2.36-.15l4.24,1.38C587.37,921.63,587.47,921.69,587.44,921.85Z" transform="translate(-31.98 -110)"/><path d="M550.06,949.41c-.27,0-.66-.06-1-.07s-.43-.14-.42-.45c.06-1.42.12-2.85.16-4.27,0-.3.19-.29.4-.29s.46,0,.45.36c0,1.08-.06,2.15-.13,3.23,0,.72,0,.78.71.79h1c.19,0,.34,0,.31.28s0,.4-.31.41h-1.08Z" transform="translate(-31.98 -110)"/><path d="M534.67,882c0,.25-.29.28-.46.39s-.25,0-.33-.12q-1.11-1.93-2.23-3.86c-.15-.26,0-.36.21-.46s.34-.25.5,0l2.25,3.9A.59.59,0,0,1,534.67,882Z" transform="translate(-31.98 -110)"/><path d="M584.1,892.27c0,.16-.1.22-.2.27l-3.78,2.18c-.26.15-.38,0-.5-.19s-.22-.37.06-.53l3.83-2.19C583.75,891.68,584.09,892,584.1,892.27Z" transform="translate(-31.98 -110)"/><path d="M513.55,906.25l4.16.47c.25,0,.38.12.34.41s-.11.49-.47.44l-2.58-.3c-.51-.06-1-.13-1.53-.17-.33,0-.48-.16-.44-.52S513.3,906.23,513.55,906.25Z" transform="translate(-31.98 -110)"/><path d="M576.29,939.67c0,.24-.22.33-.37.44s-.31,0-.42-.12l-2.09-2.4c-.23-.27-.46-.56-.71-.82s-.18-.38,0-.56.35-.27.57,0c.93,1.1,1.88,2.18,2.82,3.26A1.43,1.43,0,0,1,576.29,939.67Z" transform="translate(-31.98 -110)"/><text class="cls-14" transform="translate(620.81 600.31) rotate(180)">¿Qué hay adentro?<tspan class="cls-15"><tspan x="0" y="34.51">1 </tspan><tspan class="cls-16" x="21.28" y="34.51">R</tspan><tspan x="36.46" y="34.51">eloj alarma </tspan><tspan class="cls-16" x="167.3" y="34.51">R</tspan><tspan class="cls-17" x="182.48" y="34.51">ooster One</tspan><tspan x="0" y="69.01">1 adaptador 5V</tspan><tspan x="0" y="103.52">1 manual de</tspan><tspan x="0" y="138.03" xml:space="preserve"> instrucciones</tspan></tspan></text><path d="M333.27,656.8a14.12,14.12,0,0,0,3.59-10.75c13.75-30.3,41.26-23.87,50.83,5.38,1.16-8.64.7-16.18-2.28-22,4.17,1.13,8,5.48,11.73,11.41-.34-9.47-2.64-16.57-6.84-21.36,3.74.37,7,2.39,9.77,5.72-7.82-53.93-102.13-52.63-81.13,17.59A15.19,15.19,0,0,1,308.18,649c.65,2.5,3,5.12,6.52,7.82-10.26,1.63-4.4,13.53,2.61,9.13,1.14,6.51,9.94,7,11.08,0C334.25,671.3,341.58,663.16,333.27,656.8Z" transform="translate(-31.98 -110)"/><circle class="cls-3" cx="289.39" cy="542.18" r="2.02"/><ellipse cx="320.9" cy="472.49" rx="1.33" ry="6.86"/><ellipse cx="320.74" cy="466.71" rx="6.13" ry="1.08"/><path class="cls-3" d="M344.9,603.51a7,7,0,0,1,5,2,14.4,14.4,0,0,1,2.29,2.84,14.4,14.4,0,0,1,2.29-2.84,7.25,7.25,0,1,1,5.37,12.12,7.93,7.93,0,0,1-5.64-2.21,14.66,14.66,0,0,1-2-2.42,14.12,14.12,0,0,1-2,2.42,8,8,0,0,1-5.64,2.21,7,7,0,1,1,0-14.07Zm5.8,7.14a15.47,15.47,0,0,0-2.5-3.35,4.68,4.68,0,0,0-3.63-1.3h-.06a4.56,4.56,0,1,0,0,9.1,5.49,5.49,0,0,0,3.95-1.55A14.28,14.28,0,0,0,350.7,610.65Zm9.12,4.46a4.56,4.56,0,1,0,0-9.1h-.07a4.66,4.66,0,0,0-3.62,1.3,15.83,15.83,0,0,0-2.51,3.35,14.31,14.31,0,0,0,2.25,2.91A5.48,5.48,0,0,0,359.82,615.11Z" transform="translate(-31.98 -110)"/><path class="cls-3" d="M344.18,611.46v1.35h1.4v-1.35h1.35v-1.39h-1.35v-1.36h-1.4v1.36h-1.35v1.39Z" transform="translate(-31.98 -110)"/><path class="cls-3" d="M361.83,611.48h-4.42V610h4.42Z" transform="translate(-31.98 -110)"/><rect class="cls-4" x="202.52" y="674.5" width="39" height="241"/><rect class="cls-4" x="638.52" y="674.5" width="39" height="241"/><rect class="cls-4" x="452.5" y="565.5" width="39" height="397" transform="translate(-323.98 1126) rotate(-90)"/><rect class="cls-4" x="241.52" y="915.5" width="30" height="241"/><path d="M1114.43,426.7a22.33,22.33,0,0,0-17-5.66c-47.77-21.68-37.63-65.05,8.48-80.14-13.61-1.82-25.5-1.11-34.68,3.59,1.79-6.57,8.64-12.65,18-18.49-14.93.53-26.12,4.16-33.67,10.79.59-5.9,3.77-11,9-15.42-85,12.33-83,161,27.75,127.93a24,24,0,0,1,9.76,17c3.93-1,8.06-4.68,12.33-10.28,2.57,16.18,21.32,6.94,14.38-4.11,10.28-1.8,11-15.67,0-17.47C1137.29,425.15,1124.45,413.59,1114.43,426.7Z" transform="translate(-31.98 -110)"/><circle class="cls-3" cx="1075.15" cy="335.46" r="3.18"/><ellipse cx="965.27" cy="285.78" rx="10.81" ry="2.1"/><ellipse cx="956.16" cy="286.03" rx="1.7" ry="9.67"/><path class="cls-3" d="M1030.4,408.36a11.16,11.16,0,0,1,3.09-7.83,22.87,22.87,0,0,1,4.48-3.61,23.24,23.24,0,0,1-4.48-3.61,11.44,11.44,0,1,1,19.11-8.47,12.53,12.53,0,0,1-3.49,8.9,22.33,22.33,0,0,1-3.81,3.18,22.28,22.28,0,0,1,3.81,3.17,12.53,12.53,0,0,1,3.49,8.9,11.09,11.09,0,1,1-22.18.05C1030.41,408.81,1030.4,408.59,1030.4,408.36Zm11.26-9.14a24.89,24.89,0,0,0-5.29,3.95,7.32,7.32,0,0,0-2,5.72v.1a7.19,7.19,0,1,0,14.36,0,8.64,8.64,0,0,0-2.45-6.23A22.53,22.53,0,0,0,1041.66,399.22Zm7-14.38a7.19,7.19,0,1,0-14.36,0V385a7.3,7.3,0,0,0,2,5.71,25.25,25.25,0,0,0,5.29,4,22.92,22.92,0,0,0,4.58-3.55A8.64,8.64,0,0,0,1048.69,384.84Z" transform="translate(-31.98 -110)"/><path class="cls-3" d="M1042.93,409.51h2.13V407.3h-2.13v-2.13h-2.19v2.13h-2.14v2.21h2.14v2.12h2.19Z" transform="translate(-31.98 -110)"/><path class="cls-3" d="M1043,381.67v7h-2.27v-7Z" transform="translate(-31.98 -110)"/><text class="cls-18" transform="translate(1029.22 375.11) rotate(90)">R<tspan class="cls-19" x="24.46" y="0">OO</tspan><tspan class="cls-20" x="82.89" y="0">S</tspan><tspan class="cls-19" x="102.65" y="0">TER</tspan><tspan class="cls-19" x="170.28" y="0"> </tspan><tspan x="0" y="52.8">O</tspan><tspan class="cls-21" x="29.7" y="52.8">ne</tspan></text><rect x="737.17" y="186" width="56.69" height="380"/><rect x="1265.17" y="185" width="56.69" height="380"/><rect x="921.02" y="694.65" width="218" height="56.69"/><rect x="921.02" y="0.65" width="218" height="56.69"/></svg>